<svg xmlns="http://www.w3.org/2000/svg" width="635" height="169.3" viewBox="0 0 635 169.3" version="1.1">
  <g transform="translate(228.29762,126.33333)">
    <g transform="translate(-65.011905,-291.79762)">
      <pat d="m -163.28572,250.13095 v -84.66666 h 317.5 317.5 v 84.66666 84.66667 h -317.5 -317.5 z" style="fill:#fdfdfd;stroke-width:0.3"/>
      <path d="m56.5 295c-6.2-1-9.4-3.6-10.6-8.2-0.2-0.8-0.4-2.1-0.4-2.8v-1.3h2 2v0.8c0 1.2 0.7 3.2 1.5 4.3 2 2.8 7.5 4.1 15.8 3.6 5.5-0.3 8.9-1.4 11.2-3.5 1.8-1.7 2.5-3.1 2.5-5.3 0-3.1-1.7-5.2-5.2-6.7-2.1-0.9-4.8-1.2-12.6-1.4-7.2-0.2-7.3-0.2-8.9-0.9-2.4-1.1-3.2-1.9-4.1-3.7-0.8-1.6-0.8-1.9-0.7-3.8 0.2-2.6 1-4.3 3.2-6.3 1-0.9 1.5-1.6 1.4-1.8-0.1-0.2-0.8-0.8-1.6-1.3-2.2-1.4-3.8-3.4-4.9-6-0.9-2.1-1.1-7-0.5-9.7 1-4 4.1-7.9 8-9.8 3.5-1.7 4.3-1.9 13.5-2.3 7.2-0.3 11.8-1.1 15-2.5 1.8-0.7 1.9-0.7 2.6 1.9 0.4 1.3 0.7 2.4 0.7 2.5 0 0.4-3.2 0.8-7.7 0.9-6 0.2-6.5 0.4-3.9 2 2 1.3 4.1 3.7 4.9 5.7 1.1 2.6 1.2 7 0.4 9.9-1.5 5.6-4.8 8.9-10.5 10.4-2.3 0.6-9.1 0.7-11.7 0.1l-1.7-0.4-0.9 1c-1.5 1.7-2 3.2-1.8 5 0.1 1.3 0.3 1.7 1.1 2.5 1.7 1.7 2.7 1.9 11.4 2.1 5.7 0.2 8 0.3 9.1 0.6 2.3 0.7 5.2 2.3 6.6 3.7 2.7 2.6 3.6 4.9 3.4 8.4-0.4 6.7-4.9 10.6-14.1 12.1-3.1 0.5-11.5 0.5-14.5 0zm9.8-37.6c3.2-0.4 6.4-2.6 7.9-5.5 1-2 1.4-3.9 1.4-6.9 0-4.5-1.1-7.4-3.7-9.7-1.7-1.5-3.4-2.2-6.1-2.6-4-0.6-8.1 0.4-10.9 2.7-5.1 4.1-5.4 14.2-0.6 18.8 1.5 1.4 2.8 2.2 4.6 2.7 1.5 0.5 4.5 0.9 5.4 0.7 0.3 0 1.2-0.1 2-0.2zm-113.5 20c-7.6-1.1-12.8-6.7-14.7-16-0.7-3.4-0.7-12.5 0-15.7 1.8-8.3 5.8-13.3 12.2-15.6 1.7-0.6 2.3-0.7 6.3-0.7 3.8 0 4.6 0.1 6.1 0.6 6.6 2.3 10.6 7.4 12.2 16 0.6 2.9 0.5 12.4-0.1 15.1-1.4 6.4-4.2 11-8.6 13.9-1.1 0.7-2.1 1.3-2.3 1.3-0.2 0-0.9 0.2-1.5 0.5-1 0.4-1.9 0.6-4.6 0.6-1.9 0.1-4 0-4.8-0.1zm8-4.4c5.2-1.9 7.7-5.6 9-12.9 0.8-4.6 0.4-13.2-0.8-17.2-1.4-4.7-4.7-8.2-8.6-9.4-2.1-0.6-6-0.6-8.1 0.1-6.6 2.1-9.9 8.5-9.9 19.7 0 9.7 2.1 15.4 6.9 18.5 2 1.3 3.9 1.8 7 1.8 2.2 0 3-0.1 4.4-0.6zm265 4.4c-1.9-0.3-5.2-1.5-7.2-2.7-4.2-2.5-7.5-7.6-8.8-13.8-0.7-3.4-0.7-11.7 0.1-15.1 1.8-8 6.5-13.7 13-15.9 1.5-0.5 2.3-0.6 5.6-0.6 3.2 0 4.1 0.1 5.6 0.6 7.8 2.5 12.1 10.3 12.1 21.9v3.3h-15.6c-8.6 0-15.8 0.1-16 0.2-1.1 0.4 0 7.2 1.8 10.5 3.3 6.5 10.4 9.3 18 7.2 2-0.6 4.5-1.7 6.7-3.1 0.6-0.3 0.7-0.3 1.2 0.4 0.3 0.4 0.8 1.2 1.1 1.7 0.5 0.9 0.5 0.9-0.2 1.4-1.1 0.9-5.3 2.8-7.5 3.4-2.1 0.6-7.7 0.9-9.9 0.6zm15.9-26.3c0.3-0.2 0.3-0.7 0.2-2.6-0.6-7.8-4-13.1-9.6-14.8-1.7-0.5-5.7-0.5-7.5 0-4.3 1.3-7.6 4.8-9.2 9.8-1 3.1-1.5 6.8-1.1 7.4 0.3 0.3 2.3 0.4 13.6 0.4 7.3 0 13.4-0.1 13.6-0.2zm76.1 25.6c-0.1-0.2-0.1-14.1-0.1-30.9l0.1-30.6 8.2-0.1c7.1-0.1 8.5 0 11.2 0.5 6.4 1.1 11.2 3.5 14.6 7.5 2.5 2.9 4.8 8.2 5.7 13.6 0.7 3.8 0.7 14.2 0 18-2.3 12.7-9.2 20-20.8 21.9-3.3 0.6-18.7 0.6-18.9 0.1zm19.2-5.2c5.2-1.3 9.4-4.6 11.7-9.2 2.4-4.8 3.6-12.2 3.1-20.3-0.8-12.9-5.3-19.5-14.7-21.5-1.5-0.3-3.6-0.4-8-0.5l-6 0-0.1 25.8c0 14.2 0 26 0.1 26.2 0.2 0.6 11.2 0.2 13.9-0.5zm36.4 5.2c-0.1-0.2-0.1-14.1-0.1-30.9l0.1-30.6h9.5c8.2 0 9.8 0.1 11.8 0.5 6.3 1.4 10.3 4 12.4 8.4 1.2 2.5 1.7 6.2 1.1 9.3-0.8 4.7-4.3 8.7-9.1 10.4-0.5 0.2-1 0.5-0.9 0.6 0 0.1 1 0.5 2.1 0.8 4 1.2 7.2 3.4 8.8 6.2 1.5 2.6 1.9 4.1 1.9 8.5 0 3.8 0 3.9-0.9 6.1-0.5 1.2-1.4 2.9-2 3.7-2.6 3.5-7.5 6-13.5 7.1-3.2 0.5-21 0.6-21.2 0.1zm19.3-5c6-0.5 9.4-2.5 11.3-6.3 0.8-1.6 0.9-2 1-4.9 0.1-2.6 0-3.4-0.5-5-0.7-2.2-1.4-3.4-2.8-4.8-3-2.8-6.8-3.5-17.3-3.4l-5.4 0.1-0.1 11.9c0 6.5 0 12.1 0.1 12.2 0.2 0.4 9.4 0.5 13.8 0.1zm2-30.2c2.2-0.6 3.3-1.1 4.6-2.3 2.1-2 3.1-4.5 3.1-8.3 0-4-1.1-6.5-3.7-8.5-2.5-1.9-6.7-2.6-15-2.4l-4.8 0.1-0.1 10.7c0 5.9 0 10.9 0.1 11.1 0.2 0.5 13.6 0.3 15.7-0.3zm-505.6 4.4v-30.6h17 17l-0.2 1.4c-0.1 0.8-0.2 1.7-0.2 2l0 0.6h-14c-9.2 0-14.2 0.1-14.6 0.3-0.5 0.3-0.5 0.7-0.5 12.2 0 11.5 0 11.9 0.5 12.2 0.3 0.2 4.8 0.3 12.6 0.3h12.1v1.9 1.9h-12.1c-7.8 0-12.2 0.1-12.6 0.3-0.5 0.3-0.5 0.7-0.5 14.3v14h-2.2-2.2zM-5.6 274.9v-1.7h3.6c2.9 0 3.6-0.1 4-0.4 0.4-0.4 0.4-2.5 0.4-19.3 0-16.8 0-18.9-0.4-19.3-0.3-0.3-1.1-0.4-4-0.4h-3.6v-1.7-1.7h5.5 5.5l0.5 5.1c0.3 2.8 0.6 5.3 0.7 5.4 0.3 0.5 0.9 0 1.5-1.1 1.8-3.8 5.2-7.4 8.1-8.9 2.5-1.2 3.4-1.4 7.4-1.5 2.7-0.1 3.8 0 5 0.3 1.4 0.4 1.5 0.5 1.4 1.1-0.1 0.4-0.2 3.1-0.3 6.1-0.2 7.5 0 6.9-2.4 6.9h-2v-4.9c0-5.8 0-5.8-2.5-5.6-2.4 0.2-3.8 0.6-5.9 1.7-4.1 2.1-7.4 6.8-9.7 13.6L6.6 250.9v10.7c0 9.4 0.1 10.8 0.4 11.1 0.3 0.3 1.2 0.4 5 0.4h4.6v1.7 1.7H5.5-5.6ZM104.5 274.7v-1.9h7.1c6.1 0 7.2-0.1 7.5-0.4 0.4-0.4 0.4-2.5 0.4-19 0-16.6 0-18.7-0.4-19-0.4-0.4-1.4-0.4-7.3-0.4h-6.9v-1.9-1.9h9.4 9.4v21c0 20.5 0 21 0.5 21.3 0.3 0.2 3 0.3 6.9 0.3h6.4v1.9 1.9h-16.5-16.5zm65.8 1.4c-0.1-0.3-0.5-1.3-0.8-2.3-0.4-1-0.9-2.3-1-2.9-0.2-0.6-0.6-1.8-1-2.8-1-2.7-6.9-18.5-9.6-26.2-0.3-0.9-1-2.7-1.5-4-0.5-1.2-1.3-3.5-1.9-5.1l-1-2.8h2.4c2.6 0 2.5-0.1 3.3 2.1 0.5 1.3 1.2 3.5 2.8 7.9 0.6 1.7 1.5 4.4 2.1 6 0.6 1.6 1.3 3.6 1.6 4.4 0.3 0.8 1.2 3.2 1.9 5.3 1.9 5.2 3 8.3 3.7 10.2 0.3 0.9 0.8 2.3 1.1 3.2 0.7 2 1.2 2.8 1.7 2.6 0.2-0.1 0.8-1.4 1.3-2.8 0.5-1.5 1.6-4.6 2.4-6.9 2.9-8.1 3.6-10.3 4.2-12.2 0.3-1 1.1-3.2 1.7-4.9 0.6-1.7 2-5.6 3.1-8.7 1.1-3.1 2.1-5.8 2.2-5.9 0.1-0.1 1.2-0.2 2.5-0.1l2.3 0.1-0.8 2c-0.9 2.3-4.4 11.9-9 24.2-1.8 4.8-3.4 9.1-3.6 9.7-1.2 3.2-2.6 6.8-3.2 8.5l-0.8 2.1h-3c-2.6 0-3-0.1-3.1-0.5zm-53-59.7c-1.7-0.8-2.5-3.5-1.5-5.6 1.1-2.4 5.9-2.3 7.1 0.2 0.5 1 0.5 3-0.1 4-0.9 1.6-3.6 2.3-5.5 1.4z" style="fill:#22af4c;stroke-width:0.3"/>
      <path d="m317.8 276.8c-0.1-0.2-0.1-14.1-0.1-30.9l0.1-30.6 8.2-0.1c7.1-0.1 8.5 0 11.2 0.5 6.4 1.1 11.2 3.5 14.6 7.5 2.5 2.9 4.8 8.2 5.7 13.6 0.7 3.8 0.7 14.2 0 18-2.3 12.7-9.2 20-20.8 21.9-3.3 0.6-18.7 0.6-18.9 0.1zm19.2-5.2c5.2-1.3 9.4-4.6 11.7-9.2 2.4-4.8 3.6-12.2 3.1-20.3-0.8-12.9-5.3-19.5-14.7-21.5-1.5-0.3-3.6-0.4-8-0.5l-6 0-0.1 25.8c0 14.2 0 26 0.1 26.2 0.2 0.6 11.2 0.2 13.9-0.5zm36.4 5.2c-0.1-0.2-0.1-14.1-0.1-30.9l0.1-30.6h9.5c8.2 0 9.8 0.1 11.8 0.5 6.3 1.4 10.3 4 12.4 8.4 1.2 2.5 1.7 6.2 1.1 9.3-0.8 4.7-4.3 8.7-9.1 10.4-0.5 0.2-1 0.5-0.9 0.6 0 0.1 1 0.5 2.1 0.8 4 1.2 7.2 3.4 8.8 6.2 1.5 2.6 1.9 4.1 1.9 8.5 0 3.8 0 3.9-0.9 6.1-0.5 1.2-1.4 2.9-2 3.7-2.6 3.5-7.5 6-13.5 7.1-3.2 0.5-21 0.6-21.2 0.1zm19.3-5c6-0.5 9.4-2.5 11.3-6.3 0.8-1.6 0.9-2 1-4.9 0.1-2.6 0-3.4-0.5-5-0.7-2.2-1.4-3.4-2.8-4.8-3-2.8-6.8-3.5-17.3-3.4l-5.4 0.1-0.1 11.9c0 6.5 0 12.1 0.1 12.2 0.2 0.4 9.4 0.5 13.8 0.1zm2-30.2c2.2-0.6 3.3-1.1 4.6-2.3 2.1-2 3.1-4.5 3.1-8.3 0-4-1.1-6.5-3.7-8.5-2.5-1.9-6.7-2.6-15-2.4l-4.8 0.1-0.1 10.7c0 5.9 0 10.9 0.1 11.1 0.2 0.5 13.6 0.3 15.7-0.3z" style="fill:#585858;stroke-width:0.3"/>
    </g>
  </g>
</svg>
