<?xml version="1.0" encoding="UTF-8" standalone="no"?>

<svg
   xmlns="http://www.w3.org/2000/svg"
   width="635mm"
   height="169.33333mm"
   viewBox="0 0 635 169.33333"
   version="1.1"
   id="svg8" >
  <g
     transform="translate(228.29762,126.33333)"
     id="layer1" >
    <g
       id="g31"
       transform="translate(-65.011905,-291.79762)">
      <pat
         style="fill:#fdfdfd;stroke-width:0.26458332"
         d="m -163.28572,250.13095 v -84.66666 h 317.5 317.5 v 84.66666 84.66667 h -317.5 -317.5 z"
         id="path47" />
      <path
         style="fill:#22af4c;stroke-width:0.26458332"
         d="m 56.503573,294.96272 c -6.157113,-1.03665 -9.441066,-3.55599 -10.641187,-8.16356 -0.215522,-0.82744 -0.391856,-2.09394 -0.391856,-2.81445 v -1.31001 h 1.984375 1.984375 v 0.7517 c 0,1.17122 0.685366,3.16451 1.484635,4.31785 1.965016,2.83552 7.537284,4.10862 15.839842,3.61894 5.469584,-0.3226 8.859375,-1.37839 11.151516,-3.47328 1.821759,-1.66498 2.480257,-3.07675 2.480257,-5.31748 0,-3.06885 -1.655027,-5.2166 -5.159375,-6.69537 -2.12103,-0.89504 -4.820219,-1.19167 -12.567708,-1.38111 -7.20144,-0.17609 -7.292205,-0.18537 -8.852379,-0.90491 -2.352376,-1.08489 -3.198196,-1.85191 -4.130511,-3.74571 -0.781003,-1.58645 -0.835012,-1.8682 -0.72439,-3.77914 0.151133,-2.61073 1.018625,-4.30974 3.215632,-6.29791 1.003298,-0.90794 1.507562,-1.55217 1.411296,-1.80303 -0.08238,-0.21468 -0.781675,-0.79567 -1.553988,-1.29109 -2.245659,-1.44054 -3.82188,-3.36297 -4.909868,-5.98829 -0.859086,-2.07299 -1.106686,-7.03503 -0.482758,-9.67483 0.950124,-4.01993 4.092043,-7.87055 7.970739,-9.76864 3.51781,-1.72149 4.345975,-1.86189 13.480185,-2.2853 7.187779,-0.33318 11.793339,-1.0888 15.047415,-2.46876 1.760104,-0.74642 1.861672,-0.6741 2.641312,1.88064 0.388577,1.2733 0.705,2.39453 0.703162,2.49161 -0.0081,0.4275 -3.15708,0.81174 -7.740761,0.94453 -6.047846,0.17522 -6.45033,0.3847 -3.904253,2.03205 1.998062,1.29278 4.075581,3.70337 4.883568,5.66652 1.054301,2.56161 1.249667,6.96744 0.439671,9.91536 -1.5348,5.58578 -4.844846,8.86862 -10.482614,10.39645 -2.344973,0.63549 -9.1343,0.7012 -11.745174,0.11368 l -1.691011,-0.38052 -0.906597,1.04583 c -1.454311,1.67767 -2.003057,3.15963 -1.844286,4.98074 0.117001,1.34199 0.267502,1.68888 1.104762,2.54631 1.654985,1.69486 2.659018,1.88153 11.378139,2.11548 5.698736,0.1529 8.047332,0.31358 9.128125,0.6245 2.325955,0.66914 5.187236,2.25609 6.632131,3.67838 2.668307,2.62655 3.564924,4.86465 3.354303,8.37291 -0.403905,6.72771 -4.907635,10.58116 -14.094579,12.05948 -3.087341,0.49681 -11.51762,0.49123 -14.492145,-0.01 z m 9.839515,-37.5537 c 3.164671,-0.36016 6.411561,-2.61885 7.85476,-5.46414 1.018995,-2.00897 1.414912,-3.93477 1.425758,-6.93511 0.01624,-4.49334 -1.091489,-7.42491 -3.676013,-9.72846 -1.671907,-1.49015 -3.353498,-2.19719 -6.126189,-2.5758 -4.03942,-0.5516 -8.092091,0.44435 -10.861156,2.66912 -5.05882,4.06445 -5.357575,14.24101 -0.552649,18.82494 1.484816,1.41652 2.759753,2.17645 4.556681,2.716 1.506186,0.45226 4.497845,0.85361 5.423958,0.72766 0.291042,-0.0396 1.170726,-0.14498 1.95485,-0.23421 z m -113.476725,19.98619 c -7.645794,-1.11549 -12.76967,-6.69372 -14.716974,-16.02199 -0.707287,-3.38815 -0.708327,-12.4926 -0.0018,-15.74018 1.796542,-8.25786 5.766749,-13.341 12.15305,-15.55978 1.730793,-0.60133 2.301949,-0.6619 6.269887,-0.66488 3.798062,-0.003 4.586989,0.0719 6.068319,0.57472 6.648583,2.25696 10.590197,7.42784 12.232005,16.04681 0.55303,2.90322 0.472133,12.39429 -0.129048,15.14081 -1.411176,6.44703 -4.210917,10.95112 -8.616791,13.86229 -1.075187,0.71043 -2.10185,1.29169 -2.28147,1.29169 -0.17962,0 -0.873228,0.24181 -1.541349,0.53735 -0.95599,0.42288 -1.935427,0.55952 -4.597696,0.64141 -1.860611,0.0572 -4.037772,0.009 -4.838137,-0.10825 z m 8.030253,-4.35333 c 5.167201,-1.94493 7.745955,-5.62525 9.030266,-12.88773 0.807032,-4.56359 0.403066,-13.22576 -0.80059,-17.16694 -1.422505,-4.65778 -4.696261,-8.23277 -8.587012,-9.37715 -2.086671,-0.61375 -6.03899,-0.57691 -8.136281,0.0758 -6.635446,2.06518 -9.852272,8.4923 -9.854542,19.68905 -0.0019,9.70168 2.131148,15.40558 6.907517,18.47057 2.042695,1.31079 3.947586,1.80285 7.04237,1.81912 2.236705,0.0118 2.999404,-0.0962 4.398272,-0.62276 z m 265.019744,4.43279 c -1.88394,-0.25077 -5.21239,-1.4809 -7.22881,-2.6716 -4.23878,-2.503 -7.527,-7.64974 -8.83224,-13.8242 -0.72504,-3.42988 -0.65752,-11.66156 0.12369,-15.08125 1.82928,-8.00736 6.46142,-13.67211 13.02695,-15.93099 1.47071,-0.50599 2.27544,-0.59184 5.55625,-0.59271 3.24802,-8e-4 4.11416,0.0892 5.64705,0.58743 7.79338,2.5329 12.08003,10.30723 12.08003,21.90854 v 3.28815 h -15.58877 c -8.57383,0 -15.77711,0.0723 -16.0073,0.1606 -1.10278,0.42318 0.0262,7.16405 1.76652,10.54703 3.33494,6.48292 10.36103,9.27651 18.00947,7.16063 2.01015,-0.55609 4.45366,-1.66914 6.74529,-3.07259 0.56925,-0.34861 0.65961,-0.31901 1.24537,0.40791 0.3474,0.43108 0.84511,1.18424 1.10604,1.67369 0.4723,0.88595 0.47148,0.89235 -0.18704,1.43936 -1.07029,0.88907 -5.25478,2.77034 -7.54062,3.39011 -2.10061,0.56955 -7.65845,0.91119 -9.92188,0.60989 z m 15.85024,-26.26448 c 0.29713,-0.18811 0.33599,-0.70717 0.19288,-2.57564 -0.59986,-7.83081 -4.00516,-13.07995 -9.58318,-14.77208 -1.73972,-0.52776 -5.70638,-0.51588 -7.53639,0.0226 -4.28559,1.26097 -7.5818,4.76873 -9.22132,9.81309 -1.01446,3.12134 -1.54704,6.79528 -1.06859,7.37177 0.27082,0.32632 2.30983,0.38336 13.58156,0.37991 7.29462,-0.002 13.43038,-0.11006 13.63504,-0.23963 z m 76.08221,25.57754 c -0.0693,-0.18191 -0.0953,-14.08245 -0.0578,-30.89011 l 0.0681,-30.55937 8.15015,-0.07 c 7.1474,-0.0614 8.53133,-0.005 11.24812,0.45857 6.41157,1.09392 11.16103,3.52861 14.58259,7.47545 2.54887,2.94013 4.76914,8.18336 5.74514,13.56722 0.68456,3.77618 0.68514,14.20983 0,17.99166 -2.30288,12.73029 -9.15884,19.96379 -20.7898,21.93468 -3.25006,0.55073 -18.74414,0.62586 -18.9475,0.0919 z m 19.19255,-5.18859 c 5.21174,-1.30315 9.38551,-4.58398 11.73832,-9.22704 2.43859,-4.81227 3.55516,-12.24337 3.05189,-20.31094 -0.80364,-12.88306 -5.3495,-19.51632 -14.71544,-21.47261 -1.51529,-0.3165 -3.63145,-0.43772 -8.01227,-0.45895 l -5.95312,-0.0289 -0.0682,25.79687 c -0.0375,14.18828 -0.005,25.96401 0.0734,26.16829 0.22021,0.57732 11.18364,0.20878 13.88538,-0.46677 z m 36.36995,5.18859 c -0.0693,-0.18191 -0.0953,-14.08245 -0.0578,-30.89011 l 0.0681,-30.55937 h 9.525 c 8.23098,0 9.82996,0.0657 11.76981,0.48363 6.33227,1.36427 10.29152,4.04312 12.37916,8.37583 1.22256,2.53734 1.67778,6.23903 1.13837,9.25733 -0.84664,4.73747 -4.3112,8.68493 -9.08547,10.35183 -0.54782,0.19127 -0.95965,0.45699 -0.91514,0.59047 0.0445,0.13349 0.96895,0.50067 2.05438,0.81595 3.97367,1.15424 7.17579,3.41526 8.82716,6.23289 1.52781,2.60685 1.86653,4.14295 1.86854,8.47436 0.003,3.78672 -0.0103,3.86561 -0.92837,6.08541 -0.5116,1.23693 -1.40292,2.87985 -1.98072,3.65094 -2.5922,3.45926 -7.51208,6.03228 -13.48605,7.05301 -3.15341,0.5388 -20.97643,0.6043 -21.17693,0.0778 z m 19.32485,-4.96367 c 6.01985,-0.54354 9.44454,-2.45514 11.29164,-6.30279 0.76955,-1.60303 0.85739,-2.04656 0.9611,-4.85297 0.0974,-2.63516 0.0292,-3.36853 -0.46466,-4.99433 -0.67111,-2.20956 -1.40406,-3.44537 -2.83038,-4.77241 -2.96619,-2.75971 -6.83334,-3.51153 -17.29208,-3.3618 l -5.42396,0.0777 -0.069,11.90625 c -0.038,6.54844 -0.0119,12.05508 0.0578,12.23698 0.15902,0.41464 9.40779,0.45724 13.76948,0.0634 z m 1.98437,-30.23051 c 2.24695,-0.58073 3.3015,-1.11401 4.63653,-2.34459 2.13336,-1.96647 3.08449,-4.52258 3.08449,-8.28946 0,-4.04902 -1.0654,-6.5156 -3.67353,-8.50489 -2.46981,-1.88379 -6.69944,-2.56825 -15.0277,-2.43186 l -4.7625,0.078 -0.0692,10.71528 c -0.038,5.8934 -0.006,10.87996 0.0712,11.08125 0.19606,0.51095 13.58842,0.25254 15.74067,-0.30373 z m -505.61875,4.43636 v -30.55937 h 17.018191 17.01819 l -0.197834,1.38906 c -0.108808,0.76399 -0.206526,1.65695 -0.217149,1.98438 l -0.01932,0.59531 h -14.04031 c -9.172358,0 -14.217738,0.095 -14.552078,0.27389 -0.49432,0.26455 -0.51177,0.67936 -0.51177,12.16153 0,11.48216 0.0175,11.89697 0.51177,12.16152 0.3313,0.17731 4.76322,0.27389 12.567703,0.27389 h 12.055935 v 1.85209 1.85208 h -12.055935 c -7.804483,0 -12.236403,0.0966 -12.567703,0.27389 -0.49609,0.2655 -0.51177,0.70345 -0.51177,14.2875 v 14.01361 h -2.24896 -2.24896 z M -5.5940533,274.8695 v -1.7198 h 3.5529758 c 2.87720085,0 3.6320571,-0.0791 3.96875,-0.41577 0.3702076,-0.37021 0.4157742,-2.48491 0.4157742,-19.29568 0,-16.81078 -0.045567,-18.92548 -0.4157742,-19.29569 -0.3366929,-0.33669 -1.09154915,-0.41577 -3.96875,-0.41577 h -3.5529758 v -1.71979 -1.71979 h 5.51906542 5.51906548 l 0.472858,5.14039 c 0.2600722,2.82721 0.5542148,5.27203 0.6536505,5.43292 0.314325,0.50859 0.9495261,0.0297 1.5211187,-1.14682 1.8491544,-3.80612 5.1752792,-7.43366 8.1423672,-8.88024 2.467067,-1.2028 3.354382,-1.38487 7.432098,-1.525 2.718419,-0.0934 3.788878,-0.0244 4.97682,0.32097 1.420019,0.41281 1.505067,0.48346 1.377273,1.14419 -0.07491,0.38732 -0.208013,3.14499 -0.29578,6.12817 -0.219713,7.46784 -0.01442,6.87917 -2.398935,6.87917 h -1.963351 v -4.8759 c 0,-5.82491 0.02442,-5.76977 -2.460834,-5.55434 -2.414728,0.20932 -3.804121,0.6046 -5.872745,1.67083 -4.108307,2.11752 -7.413146,6.7519 -9.6843611,13.58039 L 6.57678,250.90938 v 10.70439 c 0,9.37848 0.051501,10.75589 0.4157742,11.12016 0.3461676,0.34617 1.1877622,0.41577 5.0270838,0.41577 h 4.611309 v 1.7198 1.71979 H 5.5184467 -5.5940533 Z M 104.47261,274.7372 v -1.85208 h 7.12486 c 6.12437,0 7.18323,-0.0584 7.54063,-0.41577 0.3701,-0.3701 0.41576,-2.46086 0.41576,-19.0311 0,-16.57025 -0.0457,-18.66101 -0.41576,-19.0311 -0.35661,-0.3566 -1.39221,-0.41578 -7.27604,-0.41578 h -6.86028 v -1.85208 -1.85208 h 9.39271 9.39271 v 21.02506 c 0,20.51608 0.0124,21.0317 0.51178,21.29896 0.3121,0.16704 2.99593,0.27389 6.87917,0.27389 h 6.36738 v 1.85208 1.85209 h -16.53646 -16.53646 z m 65.80627,1.38907 c -0.0752,-0.25466 -0.45381,-1.29646 -0.8414,-2.31511 -0.38759,-1.01864 -0.85749,-2.32833 -1.04428,-2.91041 -0.18677,-0.58209 -0.63903,-1.83224 -1.00502,-2.77813 -1.02646,-2.65284 -6.85076,-18.51877 -9.61557,-26.19375 -0.34076,-0.94588 -0.99407,-2.73182 -1.4518,-3.96875 -0.45775,-1.23693 -1.29204,-3.52888 -1.85396,-5.09323 l -1.02171,-2.84427 h 2.35963 c 2.61805,0 2.50301,-0.0747 3.25821,2.11667 0.46445,1.34769 1.23889,3.52108 2.82837,7.9375 0.6023,1.67349 1.54924,4.35239 2.10431,5.95312 0.55504,1.60073 1.25563,3.56526 1.55684,4.36563 0.30117,0.80036 1.16419,3.18161 1.91778,5.29166 1.85819,5.20287 2.96608,8.29198 3.65336,10.18646 0.31676,0.87313 0.8178,2.30188 1.11345,3.175 0.68156,2.01286 1.18642,2.80195 1.67317,2.61517 0.20918,-0.0803 0.79327,-1.35637 1.29799,-2.83577 0.50472,-1.4794 1.59031,-4.59481 2.41242,-6.92315 2.87033,-8.12928 3.63937,-10.33186 4.24953,-12.17083 0.33798,-1.01865 1.10937,-3.2213 1.71423,-4.89479 0.60487,-1.67349 1.98255,-5.59608 3.06155,-8.71686 1.079,-3.12078 2.06248,-5.77483 2.18554,-5.89789 0.12308,-0.12306 1.24528,-0.18907 2.49385,-0.14669 l 2.2701,0.0771 -0.75149,1.98438 c -0.87887,2.32063 -4.43371,11.89591 -8.98779,24.20937 -1.7761,4.80219 -3.38746,9.14797 -3.58082,9.65729 -1.22738,3.23272 -2.55326,6.76539 -3.20252,8.53282 l -0.75327,2.05052 h -2.95201 c -2.58297,0 -2.96907,-0.0579 -3.08869,-0.46302 z m -53.0003,-59.71053 c -1.74321,-0.75887 -2.51037,-3.53779 -1.54072,-5.58112 1.13218,-2.38589 5.86983,-2.28594 7.1297,0.15041 0.53075,1.02632 0.49437,3.03516 -0.0725,4.00685 -0.91874,1.5747 -3.58757,2.26355 -5.51643,1.42386 z"
         id="path37" />
      <path
         style="fill:#585858;stroke-width:0.26458332"
         d="m 317.84881,276.78773 c -0.0693,-0.18191 -0.0953,-14.08245 -0.0578,-30.89011 l 0.0681,-30.55937 8.15015,-0.07 c 7.1474,-0.0614 8.53133,-0.005 11.24812,0.45857 6.41157,1.09392 11.16103,3.52861 14.58259,7.47545 2.54887,2.94013 4.76914,8.18336 5.74514,13.56722 0.68456,3.77618 0.68514,14.20983 0,17.99166 -2.30288,12.73029 -9.15884,19.96379 -20.7898,21.93468 -3.25006,0.55073 -18.74414,0.62586 -18.9475,0.0919 z m 19.19255,-5.18859 c 5.21174,-1.30315 9.38551,-4.58398 11.73832,-9.22704 2.43859,-4.81227 3.55516,-12.24337 3.05189,-20.31094 -0.80364,-12.88306 -5.3495,-19.51632 -14.71544,-21.47261 -1.51529,-0.3165 -3.63145,-0.43772 -8.01227,-0.45895 l -5.95312,-0.0289 -0.0682,25.79687 c -0.0375,14.18828 -0.005,25.96401 0.0734,26.16829 0.22021,0.57732 11.18364,0.20878 13.88538,-0.46677 z m 36.36995,5.18859 c -0.0693,-0.18191 -0.0953,-14.08245 -0.0578,-30.89011 l 0.0681,-30.55937 h 9.525 c 8.23098,0 9.82996,0.0657 11.76981,0.48363 6.33227,1.36427 10.29152,4.04312 12.37916,8.37583 1.22256,2.53734 1.67778,6.23903 1.13837,9.25733 -0.84664,4.73747 -4.3112,8.68493 -9.08547,10.35183 -0.54782,0.19127 -0.95965,0.45699 -0.91514,0.59047 0.0445,0.13349 0.96895,0.50067 2.05438,0.81595 3.97367,1.15424 7.17579,3.41526 8.82716,6.23289 1.52781,2.60685 1.86653,4.14295 1.86854,8.47436 0.003,3.78672 -0.0103,3.86561 -0.92837,6.08541 -0.5116,1.23693 -1.40292,2.87985 -1.98072,3.65094 -2.5922,3.45926 -7.51208,6.03228 -13.48605,7.05301 -3.15341,0.5388 -20.97643,0.6043 -21.17693,0.0778 z m 19.32485,-4.96367 c 6.01985,-0.54354 9.44454,-2.45514 11.29164,-6.30279 0.76955,-1.60303 0.85739,-2.04656 0.9611,-4.85297 0.0974,-2.63516 0.0292,-3.36853 -0.46466,-4.99433 -0.67111,-2.20956 -1.40406,-3.44537 -2.83038,-4.77241 -2.96619,-2.75971 -6.83334,-3.51153 -17.29208,-3.3618 l -5.42396,0.0777 -0.069,11.90625 c -0.038,6.54844 -0.0119,12.05508 0.0578,12.23698 0.15902,0.41464 9.40779,0.45724 13.76948,0.0634 z m 1.98437,-30.23051 c 2.24695,-0.58073 3.3015,-1.11401 4.63653,-2.34459 2.13336,-1.96647 3.08449,-4.52258 3.08449,-8.28946 0,-4.04902 -1.0654,-6.5156 -3.67353,-8.50489 -2.46981,-1.88379 -6.69944,-2.56825 -15.0277,-2.43186 l -4.7625,0.078 -0.0692,10.71528 c -0.038,5.8934 -0.006,10.87996 0.0712,11.08125 0.19606,0.51095 13.58842,0.25254 15.74067,-0.30373 z"
         id="path35" />
    </g>
  </g>
</svg>
